<svg width="713" height="245" viewBox="0 0 713 245" fill="none" xmlns="http://www.w3.org/2000/svg">
<rect width="713" height="245" rx="50" fill="white"/>
<path d="M232.392 89.8H244.68V157H232.392V89.8ZM281.778 108.232C286.322 108.232 290.226 109.352 293.49 111.592C296.754 113.832 299.218 116.84 300.882 120.616C302.546 124.392 303.378 128.552 303.378 133.096C303.378 137.64 302.546 141.8 300.882 145.576C299.218 149.352 296.754 152.36 293.49 154.6C290.226 156.84 286.322 157.96 281.778 157.96C276.722 157.96 272.146 156.584 268.05 153.832L267.858 157H256.722V85H268.626V112.552C272.53 109.672 276.914 108.232 281.778 108.232ZM280.05 148.168C283.57 148.168 286.29 146.792 288.21 144.04C290.194 141.288 291.186 137.64 291.186 133.096C291.186 128.552 290.194 124.904 288.21 122.152C286.29 119.4 283.57 118.024 280.05 118.024C276.018 118.024 273.01 119.368 271.026 122.056C269.042 124.744 268.05 128.424 268.05 133.096C268.05 137.768 269.042 141.448 271.026 144.136C273.01 146.824 276.018 148.168 280.05 148.168ZM311.662 109H322.798L323.086 114.088C324.494 112.488 326.286 111.08 328.462 109.864C330.702 108.648 333.038 108.04 335.47 108.04C336.238 108.04 336.942 108.104 337.582 108.232L336.718 119.944C335.502 119.624 334.126 119.464 332.59 119.464C330.606 119.464 328.782 119.944 327.118 120.904C325.454 121.8 324.27 122.92 323.566 124.264V157H311.662V109ZM353.155 157.96C349.187 157.96 345.859 156.68 343.171 154.12C340.547 151.496 339.235 147.976 339.235 143.56C339.235 139.4 340.739 136.072 343.747 133.576C346.755 131.016 350.307 129.224 354.403 128.2C358.499 127.112 362.435 126.504 366.211 126.376C366.083 123.56 365.347 121.544 364.003 120.328C362.723 119.112 360.579 118.504 357.571 118.504C355.459 118.504 353.379 118.792 351.331 119.368C349.347 119.944 347.043 120.872 344.419 122.152L343.363 112.456C349.187 109.64 355.011 108.232 360.835 108.232C366.467 108.232 370.755 109.768 373.699 112.84C376.707 115.912 378.211 120.808 378.211 127.528V140.488C378.211 142.92 378.307 144.68 378.499 145.768C378.755 146.792 379.139 147.464 379.651 147.784C380.227 148.04 381.155 148.168 382.435 148.168H383.971L382.915 157.96H378.595C375.971 157.96 373.763 157.48 371.971 156.52C370.179 155.496 368.803 154.12 367.843 152.392C366.307 154.12 364.195 155.496 361.507 156.52C358.883 157.48 356.099 157.96 353.155 157.96ZM358.147 148.84C359.363 148.84 360.739 148.552 362.275 147.976C363.811 147.336 365.155 146.472 366.307 145.384V134.44C362.467 134.632 359.075 135.464 356.131 136.936C353.187 138.408 351.715 140.456 351.715 143.08C351.715 145.064 352.227 146.536 353.251 147.496C354.275 148.392 355.907 148.84 358.147 148.84Z" fill="black"/>
<path d="M384.647 162.952C387.463 162.952 389.447 162.344 390.599 161.128C391.815 159.912 392.423 157.768 392.423 154.696V89.8H404.711V157.384C404.711 163.016 403.367 167.112 400.679 169.672C397.991 172.232 394.151 173.512 389.159 173.512H385.703L384.647 162.952ZM416.849 89.8H428.753V101.704H416.849V89.8ZM416.849 109H428.753V157H416.849V109ZM451.24 133L435.304 109H449.512L458.248 122.92L466.312 109H480.52L464.584 133L480.52 157H466.312L457.576 143.08L449.512 157H435.304L451.24 133Z" fill="#ECAB97"/>
<line x1="381" y1="59" x2="488" y2="59" stroke="#ECAB97" stroke-width="10"/>
</svg>
